<?xml version="1.0" standalone="no"?>
<!DOCTYPE svg PUBLIC "-//W3C//DTD SVG 20010904//EN"
 "http://www.w3.org/TR/2001/REC-SVG-20010904/DTD/svg10.dtd">
<svg version="1.0" xmlns="http://www.w3.org/2000/svg"
 width="512.000000pt" height="512.000000pt" viewBox="0 0 512.000000 512.000000"
 preserveAspectRatio="xMidYMid meet">

<g transform="translate(0.000000,512.000000) scale(0.100000,-0.100000)"
fill="#78CD51" stroke="none">
<path d="M727 5110 c-49 -15 -95 -58 -124 -117 l-28 -58 -3 -2373 c-2 -1728 1
-2385 9 -2415 7 -27 25 -55 51 -79 80 -73 -70 -68 1928 -68 1998 0 1848 -5
1928 68 26 24 44 52 51 79 18 65 11 3807 -7 3848 -20 45 -1058 1081 -1108
1105 -40 20 -66 20 -1355 19 -723 0 -1327 -5 -1342 -9z m2583 -700 l0 -531
530 3 530 3 0 -1102 0 -1103 -1810 0 -1810 0 0 1604 c0 1019 4 1614 10 1630
l10 26 1270 0 1270 0 0 -530z m555 20 l370 -370 -373 0 -372 0 0 370 c0 204 1
370 3 370 1 0 169 -166 372 -370z m505 -3578 c0 -491 -3 -651 -12 -660 -17
-17 -3579 -17 -3596 0 -9 9 -12 169 -12 660 l0 648 1810 0 1810 0 0 -648z"/>
<path d="M2025 3601 c-16 -10 -150 -140 -297 -288 -258 -260 -268 -271 -268
-308 0 -38 10 -49 288 -328 279 -279 290 -289 328 -289 49 0 84 37 84 89 0 34
-16 52 -245 282 l-244 246 244 245 c230 230 245 248 245 282 0 28 -7 42 -31
62 -36 31 -63 33 -104 7z"/>
<path d="M3095 3608 c-32 -19 -44 -41 -45 -82 0 -37 9 -47 242 -282 l242 -244
-242 -243 c-235 -237 -242 -245 -242 -284 0 -66 67 -107 125 -75 11 6 145 136
298 289 255 257 277 282 277 313 0 32 -23 57 -293 327 -304 305 -311 310 -362
281z"/>
<path d="M950 795 l0 -445 75 0 75 0 0 200 0 200 190 0 190 0 2 -197 3 -198
73 -3 72 -3 0 446 0 445 -75 0 -75 0 0 -195 0 -195 -190 0 -190 0 0 195 0 195
-75 0 -75 0 0 -445z"/>
<path d="M1802 1193 l3 -48 133 -3 132 -3 0 -395 0 -395 73 3 72 3 3 393 2
392 130 0 130 0 0 50 0 50 -341 0 -340 0 3 -47z"/>
<path d="M2652 798 l3 -443 72 -3 73 -3 2 303 3 303 48 -120 c27 -66 71 -175
99 -243 l51 -123 64 3 65 3 97 240 96 240 3 -303 2 -303 73 3 72 3 3 443 2
443 -77 -3 -78 -3 -127 -294 c-70 -162 -129 -295 -131 -298 -2 -2 -62 131
-133 294 l-130 298 -77 3 -77 3 2 -443z"/>
<path d="M3700 795 l0 -445 278 2 277 3 3 52 3 53 -205 0 -206 0 0 390 0 390
-75 0 -75 0 0 -445z"/>
</g>
</svg>
