<?xml version="1.0" standalone="no"?>
<!DOCTYPE svg PUBLIC "-//W3C//DTD SVG 20010904//EN"
 "http://www.w3.org/TR/2001/REC-SVG-20010904/DTD/svg10.dtd">
<svg version="1.0" xmlns="http://www.w3.org/2000/svg"
 width="512.000000pt" height="512.000000pt" viewBox="0 0 512.000000 512.000000"
 preserveAspectRatio="xMidYMid meet">

<g transform="translate(0.000000,512.000000) scale(0.100000,-0.100000)"
fill="#78CD51" stroke="none">
<path d="M663 5039 c-51 -12 -90 -50 -100 -98 -5 -20 -8 -1098 -8 -2396 0
-2266 1 -2361 18 -2397 11 -22 33 -44 55 -55 35 -17 117 -18 1937 -18 1773 0
1903 1 1938 17 78 36 72 -141 75 2018 1 1059 0 1936 -3 1950 -8 31 -926 954
-971 975 -28 13 -205 15 -1466 14 -845 -1 -1450 -5 -1475 -10z m2747 -239 c13
-8 16 -66 20 -392 5 -357 6 -386 25 -423 13 -27 33 -47 60 -60 37 -19 66 -20
423 -25 326 -4 384 -7 392 -20 6 -9 10 -426 10 -1077 0 -952 -2 -1063 -16
-1077 -14 -14 -187 -16 -1759 -16 l-1744 0 -15 22 c-14 20 -16 182 -16 1530 0
1495 0 1508 20 1528 20 20 33 20 1303 20 789 0 1288 -4 1297 -10z m-485 -3444
c75 -26 136 -75 170 -137 27 -49 30 -63 30 -144 0 -73 -5 -100 -24 -143 -29
-65 -95 -124 -167 -152 -69 -25 -185 -44 -241 -37 l-43 5 0 -174 0 -174 -110
0 -110 0 0 480 0 479 33 5 c76 13 100 14 252 11 119 -2 173 -7 210 -19z
m-1343 -121 c37 -125 109 -402 123 -475 4 -19 10 -39 13 -44 3 -5 27 72 53
170 27 98 70 247 97 329 l48 150 147 3 147 3 0 -28 c0 -16 11 -226 25 -468 14
-242 25 -448 25 -458 0 -16 -10 -17 -107 -15 l-108 3 -7 185 c-3 102 -10 272
-13 379 l-7 194 -45 -154 c-39 -137 -107 -358 -164 -537 l-21 -62 -83 0 -83 0
-11 33 c-31 97 -134 489 -156 592 -14 65 -28 121 -31 124 -2 2 -4 -22 -4 -55
0 -32 -7 -189 -15 -349 -8 -159 -15 -305 -15 -322 l0 -33 -103 0 -102 0 28
463 c15 254 30 472 33 485 4 22 6 23 151 20 l146 -3 39 -130z m2248 -170 l0
-275 60 0 60 0 0 -85 0 -85 -60 0 -60 0 0 -110 0 -110 -100 0 -100 0 0 110 0
110 -210 0 -210 0 0 73 0 73 178 287 177 287 133 0 132 0 0 -275z"/>
<path d="M2417 3890 c-358 -65 -640 -319 -743 -667 -31 -107 -42 -273 -25
-382 48 -309 256 -585 535 -711 132 -60 205 -75 381 -75 137 0 171 3 240 23
320 92 565 337 657 657 20 69 23 103 23 240 0 135 -4 172 -23 238 -92 322
-327 559 -647 653 -72 20 -117 27 -220 29 -71 2 -152 0 -178 -5z m368 -190
c207 -65 367 -203 460 -395 54 -113 75 -205 75 -338 0 -126 -25 -230 -81 -338
-80 -154 -196 -265 -357 -341 -104 -49 -190 -68 -318 -68 -333 0 -625 215
-724 535 -27 87 -37 255 -21 349 52 297 288 544 586 612 90 21 291 12 380 -16z"/>
<path d="M2270 2974 l0 -516 23 14 c12 8 212 124 445 258 232 134 421 244 420
246 -2 1 -115 67 -253 147 -137 79 -337 194 -442 255 l-193 111 0 -515z"/>
<path d="M2650 1065 l0 -145 26 -6 c38 -10 122 3 157 24 74 42 100 140 57 210
-27 45 -74 62 -165 62 l-75 0 0 -145z"/>
<path d="M3600 1112 c-13 -31 -60 -115 -102 -186 -43 -70 -78 -130 -78 -132 0
-2 47 -4 105 -4 l105 0 0 190 c0 105 -1 190 -2 190 -2 0 -14 -26 -28 -58z"/>
</g>
</svg>
